<?xml version="1.0" encoding="utf-8"?>
<!-- Generator: Adobe Illustrator 18.0.0, SVG Export Plug-In . SVG Version: 6.00 Build 0)  -->
<!DOCTYPE svg PUBLIC "-//W3C//DTD SVG 1.1//EN" "http://www.w3.org/Graphics/SVG/1.1/DTD/svg11.dtd">
<svg version="1.1" id="Layer_1" xmlns="http://www.w3.org/2000/svg" xmlns:xlink="http://www.w3.org/1999/xlink" x="0px" y="0px"
	 viewBox="0 0 800 800" enable-background="new 0 0 800 800" xml:space="preserve">
<path id="android" fill="#FFFFFF" d="M222,593.5h72v88c0,20,16,40,40,40l0,0c20,0,40-16,40-40v-88h52v88c0,20,16,40,40,40l0,0
	c20,0,40-16,40-40v-88h72v-296H226v296H222z M166,289.5L166,289.5c-24,0-40,16-40,40v168c0,20,16,40,40,40l0,0c20,0,40-16,40-40
	v-168C202,305.5,186,289.5,166,289.5L166,289.5z M486,137.5l28-48c0-4,0-8,0-8c-4-4-8,0-8,0l-32,48c-24-8-48-16-76-16s-52,4-76,16
	l-32-48c0-4-4-4-8,0c-4,0-4,4,0,8l28,48c-56,28-96,84-88,144h356C582,217.5,542,165.5,486,137.5L486,137.5z M314,221.5
	c-8,0-16-8-16-16s8-16,16-16s16,8,16,16C334,213.5,326,221.5,314,221.5L314,221.5z M482,221.5c-8,0-16-8-16-16s8-16,16-16
	s16,8,16,16S490,221.5,482,221.5L482,221.5z M634,289.5L634,289.5c-24,0-40,16-40,40v168c0,20,16,40,40,40l0,0c20,0,40-16,40-40
	v-168C670,305.5,654,289.5,634,289.5L634,289.5z"/>
</svg>
