<?xml version="1.0" encoding="utf-8"?>
<!-- Generator: Adobe Illustrator 18.0.0, SVG Export Plug-In . SVG Version: 6.00 Build 0)  -->
<!DOCTYPE svg PUBLIC "-//W3C//DTD SVG 1.1//EN" "http://www.w3.org/Graphics/SVG/1.1/DTD/svg11.dtd">
<svg version="1.1" id="Layer_1" xmlns="http://www.w3.org/2000/svg" xmlns:xlink="http://www.w3.org/1999/xlink" x="0px" y="0px"
	 viewBox="0 0 800 800" enable-background="new 0 0 800 800" xml:space="preserve">
<path fill="#FFFFFF" d="M427.5,126c24-28,60-48,92-48c4,36-12,76-32,104c-24,28-60,48-96,44C391.5,190,407.5,150,427.5,126
	L427.5,126z M611.5,638c-28,40-56,76-96,80c-44,0-56-24-104-24c-48,0-64,24-104,28c-40,0-72-44-100-80c-56-80-96-224-40-324
	c28-48,76-80,132-80c40,0,80,28,104,28s72-36,124-28c20,0,80,8,116,64c-4,0-68,40-68,120c0,96,84,128,84,128
	C655.5,550,643.5,594,611.5,638L611.5,638z"/>
</svg>
