<?xml version="1.0" encoding="utf-8"?>
<!-- Generator: Adobe Illustrator 18.0.0, SVG Export Plug-In . SVG Version: 6.00 Build 0)  -->
<!DOCTYPE svg PUBLIC "-//W3C//DTD SVG 1.1//EN" "http://www.w3.org/Graphics/SVG/1.1/DTD/svg11.dtd">
<svg version="1.1" id="Layer_1" xmlns="http://www.w3.org/2000/svg" xmlns:xlink="http://www.w3.org/1999/xlink" x="0px" y="0px"
	 viewBox="0 0 116 116" enable-background="new 0 0 116 116" xml:space="preserve">
<g id="exampke_code">
	<rect x="2" y="2" fill="#31335F" width="112" height="112"/>
	<g>
		<rect x="47.5" y="84.1" fill="#7275C3" width="20.9" height="6.8"/>
		<path fill="#8889C3" d="M92,21.5H24c-3.4,0-6.1,2.7-6.1,6.1V78c0,3.4,2.7,6.1,6.1,6.1h68c3.4,0,6.1-2.7,6.1-6.1V27.6
			C98.1,24.3,95.4,21.5,92,21.5z"/>
		<path fill="#31335F" d="M93.1,78c0,0.6-0.5,1-1,1H24c-0.6,0-1-0.5-1-1V27.6c0-0.6,0.5-1,1-1h68c0.6,0,1,0.5,1,1V78z"/>
		<rect x="40.3" y="89.6" fill="#8889C3" width="35.5" height="4.9"/>
		<g>
			<path fill="#7275C3" d="M49.6,62.2l-1.1,1.1c-0.1,0.1-0.3,0.2-0.5,0.2s-0.4-0.1-0.5-0.2l-10-10c-0.1-0.1-0.2-0.3-0.2-0.5
				c0-0.2,0.1-0.4,0.2-0.5l10-10c0.1-0.1,0.3-0.2,0.5-0.2c0.2,0,0.4,0.1,0.5,0.2l1.1,1.1c0.1,0.1,0.2,0.3,0.2,0.5s-0.1,0.4-0.2,0.5
				l-8.4,8.4l8.4,8.4c0.1,0.1,0.2,0.3,0.2,0.5S49.8,62.1,49.6,62.2L49.6,62.2z"/>
			<path fill="#7275C3" d="M63.3,39.4l-8,27.7c-0.1,0.2-0.2,0.3-0.3,0.4c-0.2,0.1-0.3,0.1-0.5,0.1l-1.3-0.4
				c-0.2-0.1-0.3-0.2-0.4-0.3c-0.1-0.2-0.1-0.3-0.1-0.5l8-27.7c0.1-0.2,0.2-0.3,0.3-0.4c0.2-0.1,0.3-0.1,0.5-0.1l1.3,0.4
				c0.2,0.1,0.3,0.2,0.4,0.3C63.4,39,63.4,39.2,63.3,39.4L63.3,39.4z"/>
			<path fill="#7275C3" d="M78.4,53.3l-10,10c-0.1,0.1-0.3,0.2-0.5,0.2s-0.4-0.1-0.5-0.2l-1.1-1.1c-0.1-0.1-0.2-0.3-0.2-0.5
				s0.1-0.4,0.2-0.5l8.4-8.4l-8.4-8.4c-0.1-0.1-0.2-0.3-0.2-0.5c0-0.2,0.1-0.4,0.2-0.5l1.1-1.1c0.1-0.1,0.3-0.2,0.5-0.2
				s0.4,0.1,0.5,0.2l10,10c0.1,0.1,0.2,0.3,0.2,0.5C78.6,53,78.5,53.2,78.4,53.3z"/>
		</g>
	</g>
</g>
</svg>
