<?xml version="1.0" encoding="utf-8"?>
<!-- Generator: Adobe Illustrator 18.0.0, SVG Export Plug-In . SVG Version: 6.00 Build 0)  -->
<!DOCTYPE svg PUBLIC "-//W3C//DTD SVG 1.1//EN" "http://www.w3.org/Graphics/SVG/1.1/DTD/svg11.dtd">
<svg version="1.1" id="Layer_1" xmlns="http://www.w3.org/2000/svg" xmlns:xlink="http://www.w3.org/1999/xlink" x="0px" y="0px"
	 viewBox="0 0 800 800" enable-background="new 0 0 800 800" xml:space="preserve">
<path fill="#FFFFFF" d="M621.2,80H178.8c-47.2,0-85.5,38.4-85.5,85.5v379.6c0,47.2,38.4,85.5,85.5,85.5h224.1l109.7,82.8
	c4.9,4.3,11.1,6.5,17.4,6.5c3.7,0,7.5-0.8,11.1-2.4c9.5-4.3,15.5-13.8,15.5-24.2v-62.7h64.6c47.2,0,85.5-38.4,85.5-85.5V165.5
	C706.7,118.4,668.4,80,621.2,80z M430.7,538.3c-8.8,8.5-20.5,12.8-34.7,12.8c-14.2,0-25.9-4.3-34.7-12.8
	c-8.9-8.6-13.4-19.5-13.4-32.6c0-13.2,4.6-24.3,13.7-33c9-8.6,20.6-12.9,34.5-12.9c13.9,0,25.4,4.4,34.5,12.9
	c9.1,8.7,13.7,19.8,13.7,33C444.1,518.7,439.6,529.7,430.7,538.3z M512.9,303.8c-6.9,13.7-19,28.9-35.9,45.3l-21.2,20.2
	c-12.3,11.8-19.2,25.3-20.9,41.1l-1,15.7c-0.2,3.1-2.8,5.5-5.9,5.5h-66.8c-3.2,0-5.9-2.6-5.9-5.9c0-25,3.1-45.4,9.3-60.5
	c6.2-15.2,17.7-30.3,34-44.9c15.2-13.6,25.4-24.6,30.3-32.8c4.6-7.8,7-16.2,7-24.9c0-26.1-11.1-38.3-34.9-38.3
	c-11.3,0-20.1,3.3-26.7,10.1c-6.7,6.9-10.2,16.4-10.5,28.9c-0.1,3.2-2.7,5.7-5.9,5.7h-75.7c-1.6,0-3.1-0.6-4.2-1.7
	c-1.1-1.1-1.7-2.6-1.7-4.2c0.4-34.8,11.9-62.6,34.2-82.4c22.2-19.7,52.6-29.7,90.4-29.7c38.2,0,68.4,9.5,89.8,28.2
	c21.6,18.9,32.5,45.9,32.5,80.1C523.5,274.9,519.9,289.9,512.9,303.8z"/>
</svg>
