<?xml version="1.0" encoding="utf-8"?>
<!-- Generator: Adobe Illustrator 18.0.0, SVG Export Plug-In . SVG Version: 6.00 Build 0)  -->
<!DOCTYPE svg PUBLIC "-//W3C//DTD SVG 1.1//EN" "http://www.w3.org/Graphics/SVG/1.1/DTD/svg11.dtd">
<svg version="1.1" id="Layer_1" xmlns="http://www.w3.org/2000/svg" xmlns:xlink="http://www.w3.org/1999/xlink" x="0px" y="0px"
	 viewBox="0 0 612 396" enable-background="new 0 0 612 396" xml:space="preserve">
<g>
	<rect x="114.827" y="6.827" fill="#236458" width="382.345" height="382.345"/>
	<g>
		<g>
			<g>
				<path fill="#236458" d="M378.468,101.146V73.171c0-6.311-5.129-11.434-11.434-11.434h-53.585
					c-10.305,0-14.702,3.492-20.787,8.339c-6.599,5.244-14.807,11.774-29.536,11.774h-77.436c-3.859,0-7.847,2.65-7.847,7.095
					v12.202c-3.997,1.129-7.139,4.426-7.872,8.689v124.262c0.908,5.28,5.489,9.141,10.849,9.141H375.49
					c5.36,0,9.942-3.861,10.849-9.141V109.835C385.607,105.573,382.465,102.275,378.468,101.146z"/>
				<path fill="#00B098" d="M375.49,245.738H180.819c-6.597,0-12.195-4.718-13.313-11.218l-0.036-0.424V109.622l0.036-0.21
					c0.762-4.436,3.756-8.195,7.835-10.013V88.944c0-6.006,5.261-9.595,10.347-9.595h77.437c13.848,0,21.35-5.962,27.969-11.223
					c6.242-4.97,11.164-8.891,22.354-8.891h53.585c7.684,0,13.935,6.251,13.935,13.935v26.228c4.078,1.817,7.072,5.577,7.836,10.012
					l0.036,0.424v124.476l-0.036,0.21C387.686,241.021,382.087,245.738,375.49,245.738z M172.47,233.87
					c0.781,3.992,4.261,6.868,8.349,6.868H375.49c4.088,0,7.568-2.877,8.35-6.869V110.063c-0.61-3.096-2.967-5.64-6.052-6.511
					l-1.82-0.514V73.171c0-4.927-4.008-8.935-8.935-8.935h-53.585c-9.443,0-13.336,3.101-19.23,7.794
					c-6.549,5.205-15.501,12.319-31.093,12.319h-77.437c-2.22,0-5.347,1.425-5.347,4.595v14.093l-1.82,0.514
					c-3.086,0.872-5.441,3.415-6.051,6.511V233.87z"/>
			</g>
			<g>
				<line fill="#236458" x1="178.056" y1="100.791" x2="376.33" y2="100.791"/>
				<rect x="178.056" y="98.291" fill="#00B098" width="198.274" height="5"/>
			</g>
		</g>
		<g>
			<g>
				<path fill="#236458" d="M406.794,151.125v-27.975c0-6.311-5.129-11.434-11.434-11.434h-53.585
					c-10.305,0-14.702,3.492-20.787,8.339c-6.599,5.244-14.807,11.774-29.536,11.774h-77.436c-3.859,0-7.847,2.65-7.847,7.095
					v12.202c-3.997,1.129-7.139,4.426-7.872,8.689v124.262c0.908,5.28,5.489,9.141,10.849,9.141h194.672
					c5.36,0,9.942-3.861,10.849-9.141V159.813C413.933,155.551,410.791,152.253,406.794,151.125z"/>
				<path fill="#00B098" d="M403.816,295.717H209.145c-6.597,0-12.196-4.718-13.313-11.218l-0.036-0.424V159.6l0.036-0.21
					c0.762-4.436,3.756-8.195,7.835-10.013v-10.455c0-6.006,5.261-9.595,10.347-9.595h77.437c13.847,0,21.349-5.962,27.968-11.222
					c6.243-4.971,11.165-8.892,22.355-8.892h53.585c7.684,0,13.935,6.251,13.935,13.935v26.228
					c4.079,1.816,7.072,5.576,7.836,10.012l0.036,0.424v124.476l-0.036,0.21C416.012,290.999,410.413,295.717,403.816,295.717z
					 M200.796,283.849c0.781,3.992,4.261,6.868,8.349,6.868h194.671c4.088,0,7.568-2.877,8.35-6.869V160.042
					c-0.61-3.097-2.966-5.64-6.052-6.511l-1.82-0.514v-29.867c0-4.927-4.008-8.935-8.935-8.935h-53.585
					c-9.442,0-13.336,3.101-19.229,7.794c-6.551,5.206-15.502,12.319-31.094,12.319h-77.437c-2.22,0-5.347,1.425-5.347,4.595v14.093
					l-1.82,0.514c-3.086,0.872-5.441,3.415-6.051,6.511V283.849z"/>
			</g>
			<g>
				<line fill="#236458" x1="206.382" y1="150.77" x2="404.656" y2="150.77"/>
				<rect x="206.382" y="148.27" fill="#00B098" width="198.274" height="5"/>
			</g>
		</g>
		<g>
			<path fill="#00B098" d="M434.159,164.197c0-6.311-5.129-11.435-11.434-11.435h-53.585c-10.305,0-14.702,3.492-20.787,8.339
				c-6.599,5.244-14.807,11.774-29.536,11.774H241.38c-3.859,0-7.847,2.65-7.847,7.095v14.558h200.627V164.197z"/>
			<path fill="#3ABDAA" d="M225.66,200.86c0.908-5.28,5.489-9.141,10.849-9.141h194.672c5.36,0,9.941,3.861,10.849,9.141v124.262
				c-0.908,5.28-5.489,9.141-10.849,9.141H236.51c-5.36,0-9.941-3.861-10.849-9.141V200.86z"/>
		</g>
		<g>
			<path fill="#236458" d="M375.069,240.446c-0.369-1.135-1.351-1.963-2.532-2.135l-25.034-3.638l-11.195-22.685
				c-0.528-1.07-1.619-1.748-2.812-1.748s-2.284,0.678-2.813,1.748l-11.196,22.685l-25.034,3.638
				c-1.182,0.172-2.163,0.999-2.532,2.135c-0.369,1.136-0.061,2.382,0.794,3.215l18.115,17.657l-4.276,24.933
				c-0.202,1.177,0.282,2.366,1.248,3.067c0.966,0.702,2.247,0.794,3.303,0.239l22.391-11.772l22.391,11.772
				c0.459,0.241,0.96,0.36,1.459,0.36c0.65,0,1.297-0.202,1.844-0.599c0.966-0.702,1.45-1.891,1.248-3.067l-4.276-24.933
				l18.115-17.657C375.13,242.828,375.437,241.581,375.069,240.446z M350.601,257.977c-0.739,0.721-1.077,1.759-0.902,2.776
				l3.48,20.294l-18.225-9.582c-0.914-0.48-2.005-0.48-2.919,0l-18.226,9.582l3.481-20.294c0.175-1.018-0.163-2.056-0.902-2.776
				l-14.745-14.372l20.377-2.961c1.021-0.148,1.905-0.79,2.362-1.716l9.113-18.464l9.113,18.464c0.457,0.926,1.34,1.567,2.362,1.716
				l20.377,2.961L350.601,257.977z"/>
			<path fill="#236458" d="M290.036,260.143c-1.732,0-3.137,1.404-3.137,3.136v50.422c0,1.732,1.404,3.136,3.137,3.136
				c1.732,0,3.137-1.404,3.137-3.136V263.28C293.173,261.548,291.768,260.143,290.036,260.143z"/>
			<path fill="#236458" d="M377.655,260.143c-1.732,0-3.137,1.404-3.137,3.136v50.422c0,1.732,1.404,3.136,3.137,3.136
				c1.732,0,3.136-1.404,3.136-3.136V263.28C380.791,261.548,379.387,260.143,377.655,260.143z"/>
			<path fill="#236458" d="M355.574,298.44c-1.732,0-3.137,1.404-3.137,3.136v12.126c0,1.732,1.404,3.136,3.137,3.136
				c1.732,0,3.136-1.404,3.136-3.136v-12.126C358.711,299.844,357.307,298.44,355.574,298.44z"/>
			<path fill="#236458" d="M333.495,288.599c-1.732,0-3.136,1.404-3.136,3.137v21.966c0,1.732,1.404,3.137,3.136,3.137
				c1.732,0,3.137-1.404,3.137-3.137v-21.966C336.631,290.003,335.227,288.599,333.495,288.599z"/>
			<path fill="#236458" d="M311.414,298.44c-1.732,0-3.136,1.404-3.136,3.136v12.126c0,1.732,1.404,3.136,3.136,3.136
				c1.732,0,3.137-1.404,3.137-3.136v-12.126C314.551,299.844,313.146,298.44,311.414,298.44z"/>
		</g>
	</g>
</g>
</svg>
