<?xml version="1.0" encoding="utf-8"?>
<!-- Generator: Adobe Illustrator 18.0.0, SVG Export Plug-In . SVG Version: 6.00 Build 0)  -->
<!DOCTYPE svg PUBLIC "-//W3C//DTD SVG 1.1//EN" "http://www.w3.org/Graphics/SVG/1.1/DTD/svg11.dtd">
<svg version="1.1" id="Layer_1" xmlns="http://www.w3.org/2000/svg" xmlns:xlink="http://www.w3.org/1999/xlink" x="0px" y="0px"
	 viewBox="0 0 800 800" enable-background="new 0 0 800 800" xml:space="preserve">
<path fill="#FFFFFF" d="M78.7,434c4-12,16-16,28-16c24,0,44,0,68,0c0,12,0,28,0,40c-4,0-4,0-8,0c-20,0-40,0-60,0c-12,0-24-4-28-16
	C78.7,442,78.7,438,78.7,434z M78.7,278c4,12,16,16,28,16c20,0,40,0,60,0c4,0,4,0,8,0c0-12,0-28,0-40c-24,0-44,0-68,0
	c-12,0-24,4-28,16C78.7,274,78.7,274,78.7,278z M78.7,362c4,12,12,16,28,16c20,0,40,0,64,0c4,0,4,0,8,0c0-12,0-28,0-40
	c-24,0-48,0-68,0c-12,0-24,4-28,16C78.7,354,78.7,358,78.7,362z M78.7,526c4,12,12,16,28,16c20,0,40,0,64,0c4,0,4,0,8,0
	c0-12,0-28,0-40c-24,0-48,0-68,0c-12,0-24,4-28,16C78.7,522,78.7,526,78.7,526z M354.7,78c-12,4-16,16-16,28s0,28,0,40
	c0,8,0,16,0,28c16,0,28,0,40,0c0-24,0-48,0-68c0-16-4-20-16-28C358.7,78,354.7,78,354.7,78z M518.7,78c-12,4-16,16-16,28
	c0,16,0,28,0,44c0,8,0,16,0,24c16,0,28,0,40,0c0-24,0-48,0-68c0-12-4-24-16-28C522.7,78,522.7,78,518.7,78z M438.7,78
	c-8,4-16,8-16,20c0,24,0,48,0,72v4c12,0,28,0,40,0c0-24,0-48,0-68c0-12-4-24-16-28C442.7,78,438.7,78,438.7,78z M270.7,78
	c-12,4-16,16-16,28c0,20,0,40,0,56c0,4,0,8,0,12c16,0,28,0,40,0c0-4,0-4,0-8c0-20,0-40,0-60c0-12-4-24-16-28
	C274.7,78,274.7,78,270.7,78z M546.7,602c32,0,56-24,56-56c0-20,0-36,0-56c0-80,0-160,0-240c0-28-20-52-48-56c-12,0-28,0-40,0
	c-88,0-172,0-260,0c-36,0-60,24-60,56c0,96,0,196,0,292c0,32,24,56,56,56c48,0,96,0,144,0C446.7,602,498.7,602,546.7,602z
	 M698.7,294c8,0,12-4,16-12c8-16-4-28-20-28c-24,0-44,0-68,0h-4c0,12,0,28,0,40C650.7,294,674.7,294,698.7,294z M702.7,458
	c8,0,12-4,16-12c8-16-4-28-20-28c-20,0-36,0-56,0c-4,0-12,0-16,0c0,16,0,28,0,40C650.7,458,674.7,458,702.7,458z M418.7,626
	c0,24,0,48,0,72c0,12,8,24,20,24s20-8,20-24c0-20,0-44,0-64c0-4,0-4,0-8C446.7,622,434.7,622,418.7,626
	C418.7,622,418.7,626,418.7,626z M254.7,698v4c4,8,12,16,20,16s16-8,16-20c0-24,0-52,0-76l0,0c-12,0-24,0-40,0
	C254.7,646,254.7,674,254.7,698z M502.7,694c0,12,8,24,20,24c12,0,20-8,20-24c0-20,0-40,0-56c0-4,0-12,0-16c-12,0-28,0-40,0
	C502.7,646,502.7,670,502.7,694z M338.7,630c0,24,0,44,0,68c0,12,8,24,20,24s20-8,20-24c0-20,0-44,0-64c0-4,0-4,0-8c-12,0-28,0-40,0
	C338.7,626,338.7,626,338.7,630z M626.7,378c24,0,48,0,68,0c12,0,20-8,20-20s-8-20-24-20c-24,0-44,0-68,0h-4c0,12,0,28,0,40
	C622.7,378,626.7,378,626.7,378z M622.7,542c28,0,52,0,76,0c12,0,20-12,20-20c0-12-8-20-20-20c-8,0-16,0-24,0c-16,0-36,0-52,0
	C622.7,514,622.7,530,622.7,542z"/>
</svg>
