<?xml version="1.0" encoding="utf-8"?>
<!-- Generator: Adobe Illustrator 18.0.0, SVG Export Plug-In . SVG Version: 6.00 Build 0)  -->
<!DOCTYPE svg PUBLIC "-//W3C//DTD SVG 1.1//EN" "http://www.w3.org/Graphics/SVG/1.1/DTD/svg11.dtd">
<svg version="1.1" id="Layer_1" xmlns="http://www.w3.org/2000/svg" xmlns:xlink="http://www.w3.org/1999/xlink" x="0px" y="0px"
	 viewBox="0 0 30 30" enable-background="new 0 0 30 30" xml:space="preserve">
<path fill="#FFFFFF" d="M15.9,6.5C16.6,5.6,17.7,5,18.7,5c0.1,1.1-0.4,2.4-1,3.2c-0.7,0.9-1.9,1.5-3,1.4C14.7,8.5,15.2,7.2,15.9,6.5
	L15.9,6.5z M21.6,22.4c-0.9,1.2-1.7,2.4-3,2.5c-1.4,0-1.7-0.7-3.2-0.7s-2,0.7-3.2,0.9c-1.2,0-2.2-1.4-3.1-2.5c-1.7-2.5-3-7-1.2-10.1
	C8.6,11,10.1,10,11.9,10c1.2,0,2.5,0.9,3.2,0.9S17.3,9.7,19,10c0.6,0,2.5,0.2,3.6,2c-0.1,0-2.1,1.2-2.1,3.7c0,3,2.6,4,2.6,4
	C22.9,19.7,22.6,21,21.6,22.4L21.6,22.4z"/>
</svg>
