<?xml version="1.0" encoding="utf-8"?>
<!-- Generator: Adobe Illustrator 18.0.0, SVG Export Plug-In . SVG Version: 6.00 Build 0)  -->
<!DOCTYPE svg PUBLIC "-//W3C//DTD SVG 1.1//EN" "http://www.w3.org/Graphics/SVG/1.1/DTD/svg11.dtd">
<svg version="1.1" id="Layer_1" xmlns="http://www.w3.org/2000/svg" xmlns:xlink="http://www.w3.org/1999/xlink" x="0px" y="0px"
	 viewBox="0 0 80 80" enable-background="new 0 0 80 80" xml:space="preserve">
<g>
	<path fill="#FFFFFF" d="M48.1,47.9c0.8-0.8,2.1-0.8,2.8,0l0.2,0.2c3.7-4.4,5.8-9.9,5.8-15.7c0-6.7-2.6-12.9-7.4-17.5
		C44.9,10.4,38.9,8,32.5,8c-7,0-13.8,3-18.4,8.4l0,0C10.2,21,8,26.7,8,32.6c0,6.3,2.4,12.3,6.8,16.8c4.7,4.9,11,7.6,17.7,7.6
		c5.9,0,11.5-2.1,15.9-5.9l-0.3-0.3C47.3,50,47.3,48.7,48.1,47.9z M28.5,11.5c-1.7,2.3-4.1,5.9-5.7,10.3c-0.1,0-0.1-0.1-0.1-0.1
		c-0.1-0.1-0.3-0.1-0.4-0.2s-0.3-0.1-0.4-0.2s-0.3-0.2-0.5-0.3s-0.3-0.1-0.4-0.3c-0.1-0.1-0.3-0.2-0.5-0.3c-0.1-0.1-0.3-0.2-0.4-0.3
		c-0.1-0.1-0.3-0.2-0.4-0.3c-0.1-0.1-0.3-0.2-0.4-0.3s-0.3-0.2-0.4-0.3s-0.3-0.2-0.3-0.3c-0.1-0.1-0.3-0.3-0.4-0.4s-0.2-0.2-0.3-0.3
		s-0.3-0.3-0.4-0.4l-0.1-0.1C20.3,14.4,24.2,12.3,28.5,11.5z M15.2,19.9c0.1,0.1,0.2,0.3,0.3,0.3c0.1,0.1,0.3,0.3,0.3,0.3
		c0.1,0.1,0.3,0.3,0.6,0.5c0.1,0.1,0.5,0.4,0.5,0.4c0.1,0.1,0.3,0.3,0.5,0.4l0.4,0.3c0.1,0.1,0.3,0.3,0.5,0.4
		c0.1,0.1,0.3,0.2,0.4,0.3c0.2,0.1,0.3,0.3,0.6,0.4c0.1,0.1,0.3,0.2,0.5,0.3c0.2,0.1,0.4,0.2,0.6,0.3c0.1,0.1,0.3,0.2,0.5,0.3
		c0.2,0.1,0.4,0.2,0.6,0.3c0.1,0.1,0.3,0.1,0.5,0.2l0,0c-0.6,2.1-0.8,4.1-1,6.1h-9.8C11.4,27,12.8,23.2,15.2,19.9z M17.3,44.2
		c-0.1,0.1-0.2,0.2-0.3,0.3c-0.1,0.1-0.3,0.3-0.5,0.6l-0.1,0.1c-0.1,0.1-0.2,0.2-0.3,0.3c-0.1,0.1-0.3,0.3-0.4,0.4
		c-2.8-3.4-4.3-7.4-4.6-11.8H21l0,0c0.1,2.2,0.5,4.5,1.1,6.7c-0.2,0.1-0.3,0.2-0.6,0.3c-0.1,0.1-0.3,0.2-0.5,0.3s-0.4,0.2-0.6,0.3
		c-0.1,0.1-0.3,0.2-0.5,0.3s-0.4,0.3-0.6,0.4c-0.1,0.1-0.3,0.2-0.5,0.3s-0.3,0.3-0.6,0.5c-0.1,0.1-0.3,0.2-0.4,0.3
		c-0.2,0.1-0.3,0.3-0.6,0.5L17.3,44.2z M17.9,48.2c0-0.1,0.1-0.1,0.1-0.1c0.1-0.1,0.3-0.3,0.4-0.5c0.1-0.1,0.2-0.3,0.3-0.4
		c0.1-0.1,0.3-0.3,0.4-0.4c0.1-0.1,0.2-0.2,0.3-0.3c0.1-0.1,0.3-0.3,0.4-0.4c0.1-0.1,0.3-0.2,0.4-0.3s0.3-0.3,0.5-0.4
		c0.1-0.1,0.3-0.2,0.4-0.3s0.3-0.2,0.5-0.3c0.1-0.1,0.3-0.2,0.4-0.3s0.3-0.2,0.5-0.3c0.1-0.1,0.5-0.3,0.5-0.3
		c1.3,3.3,3.2,6.6,5.7,9.8C24.6,52.9,20.9,51,17.9,48.2z M30.8,51.3c-2.2-2.9-3.9-5.9-5-8.8c0.1,0,0.1-0.1,0.1-0.1
		c0.2-0.1,0.3-0.1,0.6-0.2l0.1-0.1C26.7,42,26.9,42,27,42c0.1-0.1,0.3-0.1,0.5-0.1c0,0,0.5-0.1,0.6-0.1c0.1-0.1,0.3-0.1,0.5-0.1h0.1
		c0,0,0.3-0.1,0.5-0.1s0.3-0.1,0.6-0.1c0,0,0.5-0.1,0.6-0.1c0.2,0,0.4-0.1,0.6-0.1l0,0L30.8,51.3L30.8,51.3z M30.6,38.2
		c-0.3,0-0.5,0.1-0.8,0.1c-0.1,0-0.2,0-0.3,0.1l-0.3,0.1c-0.2,0-0.4,0.1-0.7,0.1c-0.1,0-0.3,0.1-0.5,0.1h0c-0.2,0.1-0.4,0.1-0.6,0.1
		c-0.1,0-0.3,0.1-0.4,0.1L26.7,39c-0.3,0-0.4,0-0.6,0c-0.1,0.1-0.6,0.2-0.6,0.2c-0.2,0.1-0.4,0.1-0.6,0.2c0,0-0.1,0-0.1,0.1
		c-0.5-1.8-0.8-3.6-0.9-5.4h7v4.1l0,0L30.6,38.2z M30.8,31h-7c0.1-1.7,0.3-3.4,0.8-5.1h0.1c0,0,0.3,0.1,0.5,0.1
		c0.2,0.1,0.4,0.1,0.7,0.1c0,0,0.4,0.1,0.5,0.1c0.2,0.1,0.3,0.1,0.6,0.1c0,0,0.5,0.1,0.6,0.1c0.2,0,0.4,0.1,0.6,0.1h0.1
		c0,0,0.3,0.1,0.5,0.1c0.3,0,0.6,0.1,0.8,0.1c0,0,0.3,0,0.4,0c0.3,0,0.6,0,0.8,0V31L30.8,31z M30.8,23.9c-0.2,0-0.4,0-0.7,0
		l-0.5-0.1c-0.2,0-0.4,0-0.6-0.1c-0.1,0-0.6-0.1-0.6-0.1c-0.1,0-0.3-0.1-0.6-0.1c-0.1,0-0.5-0.1-0.5-0.1c-0.2,0-0.3-0.1-0.6-0.1
		c-0.1,0-0.6-0.1-0.6-0.1c-0.1,0-0.3-0.1-0.4-0.1L25.5,23c1.4-4.1,3.7-7.4,5.3-9.4C30.8,13.5,30.8,23.9,30.8,23.9z M46.9,20.3
		c0.1-0.1,0.2-0.2,0.3-0.3c0.1-0.1,0.3-0.3,0.5-0.6l0.1-0.1c0.1-0.1,0.2-0.3,0.3-0.4s0.3-0.3,0.4-0.6c3.1,3.5,4.9,7.8,5.2,12.5H44
		l0,0c-0.1-2.4-0.6-4.8-1.2-7.2c0.1-0.1,0.3-0.2,0.5-0.3c0.2-0.1,0.4-0.3,0.6-0.4c0.1-0.1,0.3-0.2,0.5-0.3c0.2-0.1,0.4-0.3,0.6-0.4
		c0.1-0.1,0.3-0.3,0.5-0.4s0.3-0.3,0.6-0.5c0.1-0.1,0.3-0.3,0.4-0.3c0.2-0.1,0.3-0.3,0.6-0.5L46.9,20.3z M46.3,16.3
		c-0.1,0.1-0.1,0.1-0.1,0.1c-0.1,0.1-0.3,0.3-0.4,0.5c-0.1,0.1-0.2,0.3-0.3,0.4s-0.3,0.3-0.4,0.5c-0.1,0.1-0.3,0.3-0.4,0.4
		s-0.3,0.3-0.4,0.4C44,18.8,43.9,19,43.7,19c-0.1,0.1-0.3,0.3-0.5,0.4c-0.1,0.1-0.3,0.2-0.4,0.3c-0.1,0.1-0.3,0.3-0.5,0.3
		c-0.1,0.1-0.3,0.2-0.4,0.3c-0.1,0.1-0.3,0.2-0.4,0.3c-1.5-3.9-3.6-7-5.3-9.2C40,12.2,43.5,13.9,46.3,16.3z M34,13.5
		c1.5,1.9,3.5,5,5,8.7c-0.1,0.1-0.8,0.3-0.9,0.3c-0.1,0.1-0.3,0.1-0.4,0.1l-0.3,0.1c-0.1,0.1-0.2,0.1-0.3,0.1
		c-0.2,0.1-0.4,0.1-0.6,0.2l-0.1,0.1c-0.1,0-0.2,0.1-0.3,0.1c-0.2,0.1-0.4,0.1-0.6,0.1l-0.2,0.1c-0.1,0-0.2,0.1-0.3,0.1
		c-0.2,0.1-0.4,0.1-0.6,0.1H34V13.5L34,13.5z M34,26.8L34,26.8c0.1,0,0.2,0,0.3-0.1l0.3-0.1c0.2,0,0.5-0.1,0.7-0.1
		c0.1,0,0.7-0.1,0.7-0.1c0.2-0.1,0.4-0.1,0.6-0.1c0.1-0.1,0.3-0.1,0.5-0.1l0.1-0.1c0.2-0.1,0.4-0.1,0.7-0.2c0.2-0.1,0.3-0.1,0.6-0.2
		c0.2-0.1,0.5-0.1,0.7-0.2s0.3-0.1,0.6-0.2c0.1,0,0.1-0.1,0.2-0.1c0.6,1.9,0.9,3.9,1,5.8h-7V26.8L34,26.8z M40.9,34.1
		c-0.1,1.8-0.4,3.6-0.9,5.4c0,0,0,0-0.1,0c-0.2-0.1-0.4-0.1-0.7-0.2c0,0-0.4-0.1-0.6-0.1C38.5,39,38.2,39,38,38.9l-0.1-0.1
		c-0.1,0-0.3-0.1-0.3-0.1c-0.2-0.1-0.4-0.1-0.7-0.1h-0.1c-0.1,0-0.3-0.1-0.3-0.1c-0.3-0.1-0.5-0.1-0.8-0.1c0,0-0.4-0.1-0.5-0.1
		c-0.3,0-0.6-0.1-0.8-0.1c0,0-0.1,0-0.2,0v-4.1L40.9,34.1L40.9,34.1z M34,41.3L34,41.3c0.3,0,0.5,0,0.7,0.1c0.1,0,0.2,0,0.3,0.1h0.1
		c0.2,0,0.4,0.1,0.6,0.1c0.1,0,0.2,0.1,0.3,0.1l0.3,0.1c0.1,0,0.3,0.1,0.5,0.1c0.1,0,0.6,0.1,0.6,0.1c0.1,0.1,0.3,0.1,0.4,0.1
		c0.1,0.1,0.6,0.1,0.6,0.1c0.1,0.1,0.3,0.1,0.5,0.2c0,0,0.1,0,0.1,0.1c-1.2,3-2.8,6-5,8.9L34,41.3L34,41.3z M36.2,53.6
		c2.5-3.2,4.3-6.5,5.7-9.9c0,0,0.1,0,0.1,0.1c0.1,0.1,0.3,0.1,0.4,0.3c0.1,0.1,0.3,0.2,0.5,0.3c0.1,0.1,0.3,0.1,0.4,0.3
		c0.1,0.1,0.3,0.2,0.5,0.3c0.1,0.1,0.3,0.2,0.4,0.3c0.1,0.1,0.3,0.2,0.5,0.3c0.1,0.1,0.3,0.2,0.4,0.3c0.1,0.1,0.3,0.3,0.4,0.4
		c0.1,0.1,0.3,0.2,0.4,0.3c0.1,0.1,0.3,0.3,0.4,0.4c0.1,0.1,0.2,0.3,0.3,0.4c0.1,0.1,0.3,0.3,0.4,0.5l0.1,0.1
		C44,51,40.2,52.9,36.2,53.6z M46.9,43.7c-0.1-0.1-0.5-0.4-0.5-0.4c-0.1-0.1-0.3-0.3-0.5-0.4c-0.1-0.1-0.3-0.2-0.5-0.3
		s-0.4-0.3-0.6-0.4c-0.1-0.1-0.3-0.2-0.5-0.3s-0.4-0.3-0.6-0.3c-0.1-0.1-0.3-0.2-0.5-0.3s-0.3-0.2-0.6-0.3c0.6-2.2,1-4.4,1.1-6.7
		h9.9c-0.3,4.3-1.9,8.3-4.6,11.8c-0.1-0.1-0.3-0.3-0.4-0.4c-0.1-0.1-0.3-0.4-0.3-0.4c-0.1-0.2-0.3-0.3-0.6-0.6
		c-0.1-0.1-0.4-0.4-0.4-0.4C47.3,43.9,47.1,43.8,46.9,43.7z"/>
	<path fill="#FFFFFF" d="M70.8,65.1L62,56.3c-1-1-2.4-1.3-3.7-1l-7.1-7.2L51,47.9c-0.8-0.8-2.1-0.8-2.8,0c-0.8,0.8-0.8,2.1,0,2.8
		l0.3,0.3l7,7c-0.3,1.3-0.1,2.8,1,3.9l8.8,8.8c0.8,0.8,1.8,1.2,2.8,1.2s2.1-0.4,2.8-1.2C72.4,69.2,72.4,66.7,70.8,65.1z"/>
</g>
</svg>
