<?xml version="1.0" encoding="utf-8"?>
<!-- Generator: Adobe Illustrator 18.0.0, SVG Export Plug-In . SVG Version: 6.00 Build 0)  -->
<!DOCTYPE svg PUBLIC "-//W3C//DTD SVG 1.1//EN" "http://www.w3.org/Graphics/SVG/1.1/DTD/svg11.dtd">
<svg version="1.1" id="Layer_1" xmlns="http://www.w3.org/2000/svg" xmlns:xlink="http://www.w3.org/1999/xlink" x="0px" y="0px"
	 viewBox="0 0 800 800" enable-background="new 0 0 800 800" xml:space="preserve">
<path fill="#FFFFFF" d="M707.1,414c0-45.2-27-84.2-65.8-101.7C636.4,183.3,530.1,80,400,80S163.6,183.3,158.6,312.2
	c-38.7,17.5-65.8,56.5-65.8,101.7c0,61.6,50.1,111.6,111.6,111.6c0.6,0,1.2,0,1.8,0l0.2,0c13.8-0.2,24.9-11.5,24.9-25.3V327.7
	c0-13.7-10.8-24.8-24.4-25.3c9.6-98,92.5-174.8,193-174.8s183.4,76.8,193,174.8c-13.6,0.5-24.4,11.6-24.4,25.3v172.5
	c0,13.8,11.1,25.1,24.9,25.3l0.2,0c0.6,0,1.2,0,1.8,0c2.1,0,4.2-0.1,6.3-0.2c-7.6,54.5-48.4,102.3-110.2,127.7
	c-3.9,1.6-7.5,2.9-10.9,3.9c-6.2-25.8-39.1-45.5-78.9-45.5c-44.1,0-79.9,24.3-79.9,54.2c0,30,35.8,54.2,79.9,54.2
	c32.2,0,59.9-12.9,72.6-31.6c8.6-1.4,17.6-3.9,28.3-8.3c38.1-15.6,70.3-39.6,93.2-69.3c21.1-27.5,33.4-58.8,36-91.4
	C675.6,504.4,707.1,462.8,707.1,414z"/>
</svg>
