<?xml version="1.0" encoding="utf-8"?>
<!-- Generator: Adobe Illustrator 18.0.0, SVG Export Plug-In . SVG Version: 6.00 Build 0)  -->
<!DOCTYPE svg PUBLIC "-//W3C//DTD SVG 1.1//EN" "http://www.w3.org/Graphics/SVG/1.1/DTD/svg11.dtd">
<svg version="1.1" id="Layer_1" xmlns="http://www.w3.org/2000/svg" xmlns:xlink="http://www.w3.org/1999/xlink" x="0px" y="0px"
	 viewBox="0 0 800 800" enable-background="new 0 0 800 800" xml:space="preserve">
<path fill="#52B9E9" d="M400,48C205.6,48,48,205.6,48,400s157.6,352,352,352s352-157.6,352-352S594.4,48,400,48z M557.3,320
	c0,4,0,6.7,0,10.7c0,108-82.7,233.3-233.3,233.3c-45.3,0-89.3-14.7-125.3-37.3c6.7,1.3,13.3,1.3,20,1.3c37.3,0,73.3-12,101.3-34.7
	c-34.7-1.3-65.3-25.3-76-57.3c5.3,1.3,10.7,1.3,16,1.3c6.7,0,14.7-1.3,21.3-2.7c-37.3-6.7-65.3-40-65.3-80v-1.3
	c10.7,6.7,24,10.7,37.3,10.7c-21.3-14.7-36-40-36-68c0-14.7,4-29.3,10.7-41.3C268,304,329.3,336,397.3,340
	c-5.3-24-1.3-50.7,17.3-77.3c45.3-37.3,94.7-28,122.7,1.3c18.7-4,36-10.7,52-20c-6.7,18.7-20,34.7-37.3,46.7
	c16-2.7,32-6.7,46.7-13.3C586.7,293.3,573.3,308,557.3,320z"/>
</svg>
