<?xml version="1.0" encoding="utf-8"?>
<!-- Generator: Adobe Illustrator 18.0.0, SVG Export Plug-In . SVG Version: 6.00 Build 0)  -->
<!DOCTYPE svg PUBLIC "-//W3C//DTD SVG 1.1//EN" "http://www.w3.org/Graphics/SVG/1.1/DTD/svg11.dtd">
<svg version="1.1" id="Layer_1" xmlns="http://www.w3.org/2000/svg" xmlns:xlink="http://www.w3.org/1999/xlink" x="0px" y="0px"
	 viewBox="0 0 800 800" enable-background="new 0 0 800 800" xml:space="preserve">
<path fill="#52B9E9" d="M400,48C205.6,48,48,205.6,48,400s157.6,352,352,352s352-157.6,352-352S594.4,48,400,48z M600,416
	c0,33.3-4,65.3-4,65.3s-4,28-16,40c-14.7,16-32,16-40,17.3c-56,4-140,4-140,4s-104-1.3-136-4c-9.3-1.3-29.3-1.3-44-17.3
	c-12-12-16-40-16-40s-4-33.3-4-65.3v-30.7c0-33.3,4-65.3,4-65.3s4-28,16-40c14.7-16,32-16,40-17.3c56-4,140-4,140-4s84,0,140,4
	c8,1.3,25.3,1.3,40,17.3c12,12,16,40,16,40s4,32,4,65.3V416z M356,449.3l106.7-54.6l-106.7-56V449.3z"/>
</svg>
