<?xml version="1.0" encoding="utf-8"?>
<!-- Generator: Adobe Illustrator 18.0.0, SVG Export Plug-In . SVG Version: 6.00 Build 0)  -->
<!DOCTYPE svg PUBLIC "-//W3C//DTD SVG 1.1//EN" "http://www.w3.org/Graphics/SVG/1.1/DTD/svg11.dtd">
<svg version="1.1" id="Layer_1" xmlns="http://www.w3.org/2000/svg" xmlns:xlink="http://www.w3.org/1999/xlink" x="0px" y="0px"
	 viewBox="0 0 800 800" enable-background="new 0 0 800 800" xml:space="preserve">
<path fill="#52B9E9" d="M458.7,458.7c50.7-65.3,4-138.7-58.7-138.7c-44,0-80,36-80,80C320,462.7,393.3,509.3,458.7,458.7z M520,400
	c0,65.3-54.7,120-120,120s-120-53.3-120-120c0-5.3,0-13.3,1.3-20H240v180h320V380h-42.7C520,386.7,520,394.7,520,400z M400,48
	C205.6,48,48,205.6,48,400s157.6,352,352,352s352-157.6,352-352S594.4,48,400,48z M600,600H200V200h360c22.7,0,40,17.3,40,40V600z
	 M500,240h60v60h-60V240z"/>
</svg>
